<svg id="about-icons" xmlns="http://www.w3.org/2000/svg" viewBox="0 0 144 144"><g id="outsource"><path d="M57.51,106V93.3c0-1.69,0-1.69-1.74-1.7-1.41,0-2.81,0-4.21,0S50,91.23,50,89.9c0-4.42.08-8.84,0-13.26-.06-2.36.07-4.57,1.48-6.59a15.54,15.54,0,0,1,6.9-5.65A9.55,9.55,0,0,1,60,63.82c.74-.17.74-.4.31-1a12.73,12.73,0,0,1-2.82-8.18,13.07,13.07,0,1,1,26.14.23A12.37,12.37,0,0,1,81,62.62c-.52.66-.62,1,.33,1.26,7,2.31,11,7.9,11,15.29v9.16c0,2.5-.79,3.29-3.25,3.29-1.37,0-2.74,0-4.1,0-1,0-1.34.31-1.33,1.32,0,7.89,0,15.78,0,23.67,0,.84,0,1.68,0,2.52,0,1.83-.85,2.63-2.65,2.63q-10.43,0-20.83,0c-1.94,0-2.66-.72-2.66-2.67ZM62,96.72c0,6.41,0,12.83,0,19.25,0,1,.26,1.33,1.24,1.26,1.16-.07,2.32,0,3.47,0,1.52,0,1.52,0,1.52-1.48,0-7.57,0-15.15,0-22.72,0-1.68,0-1.68,1.67-1.68,2.85,0,2.85,0,2.85,2.8,0,7.29,0,14.59,0,21.88,0,.9.22,1.28,1.18,1.22,1.18-.07,2.38,0,3.57,0,1.48,0,1.48,0,1.48-1.52V78.13c0-.35,0-.7,0-1,0-.62.29-.89.9-.88s1.47,0,2.21,0c1.52,0,1.54,0,1.54,1.5,0,2.17,0,4.35,0,6.52,0,3.14-.49,2.68,2.83,2.75.85,0,1.19-.29,1.17-1.16,0-2.59,0-5.19,0-7.78A10.49,10.49,0,0,0,77.4,67.87q-6.83-.11-13.67,0A10.55,10.55,0,0,0,53.6,76.37c-.5,2.54-.21,5.11-.22,7.66,0,3.42-.59,2.88,3,3,.81,0,1.12-.28,1.1-1.1,0-2.18,0-4.35,0-6.53,0-3.18,0-3.18,3.15-3.15,1.31,0,1.36.06,1.36,1.37Zm8.45-33.54A8.31,8.31,0,0,0,79,54.8a8.53,8.53,0,0,0-8.5-8.6A8.65,8.65,0,0,0,62,54.68,8.44,8.44,0,0,0,70.47,63.18Z"/><path d="M23.11,136.85c-4.83,0-9.67,0-14.51,0-1.89,0-2.17-.32-2.17-2.23,0-2.76.11-5.54,0-8.3-.17-3.33,1.41-5.77,3.66-7.92a10.32,10.32,0,0,1,3.62-2.29c.72-.26.92-.5.41-1.25a10.89,10.89,0,1,1,18.12-.26c-.72,1.09-.7,1,.49,1.62a12.83,12.83,0,0,1,7.68,10.87A66.78,66.78,0,0,1,40.5,134c0,2.08-.87,2.88-3,2.88H23.11ZM23,132.38v0c3.89,0,7.78,0,11.67,0,.87,0,1.2-.28,1.15-1.15,0-1.12,0-2.24,0-3.36a8.26,8.26,0,0,0-6.9-8,43.9,43.9,0,0,0-11.22-.08c-4.68.5-7.49,4-7.49,8.74,0,.87,0,1.75,0,2.62s.32,1.27,1.28,1.26C15.33,132.36,19.19,132.38,23,132.38Zm-6.3-23.65A6.3,6.3,0,1,0,23,102.37,6.31,6.31,0,0,0,16.74,108.73Z"/><path d="M23.14,46.15H8.63c-1.92,0-2.2-.31-2.2-2.19,0-2.8.09-5.61,0-8.41-.14-3.32,1.43-5.76,3.71-7.88a10.41,10.41,0,0,1,3.54-2.23c.82-.3.88-.6.38-1.34A10.72,10.72,0,0,1,15.62,10a10.92,10.92,0,0,1,14.09-.66,10.81,10.81,0,0,1,2.38,14.67c-.51.75-.47,1,.38,1.4a12.76,12.76,0,0,1,7.92,11.13c.21,2.27.12,4.55.11,6.82,0,2-.89,2.8-2.85,2.8H23.14Zm-.09-4.47v0H34.71c.86.11,1.2-.25,1.15-1.13,0-1.15,0-2.31,0-3.46a8.34,8.34,0,0,0-7-7.92,49.75,49.75,0,0,0-10.91-.1c-4.73.4-7.69,4-7.69,8.78,0,.87,0,1.75,0,2.62s.34,1.26,1.29,1.25C15.34,41.66,19.19,41.68,23.05,41.68ZM16.74,18a6.3,6.3,0,1,0,6.36-6.32A6.3,6.3,0,0,0,16.74,18Z"/><path d="M118.11,46.15H103.49c-1.74,0-1.95-.23-1.95-1.93,0-3,.1-6,0-9a8.65,8.65,0,0,1,2.23-6.05,11.78,11.78,0,0,1,5-3.72c.85-.31.75-.59.32-1.23a10.9,10.9,0,1,1,18.23-.41,1.67,1.67,0,0,1-.17.26c-.66.69-.56,1,.38,1.45a12.56,12.56,0,0,1,7.66,9.37c.64,3.08.31,6.22.24,9.33,0,1.32-1,2-2.47,2H118.11Zm-.22-4.47v0c3.89,0,7.78,0,11.67,0,1,0,1.29-.34,1.24-1.28s0-2.17,0-3.26a8.2,8.2,0,0,0-6.88-8,49.44,49.44,0,0,0-11-.09c-4.33.38-7,3.21-7.65,7.53a23.78,23.78,0,0,0-.09,3.68c0,1.41,0,1.41,1.38,1.41ZM111.69,18a6.36,6.36,0,1,0,12.72.09A6.36,6.36,0,0,0,111.69,18Z"/><path d="M118.18,136.85c-4.8,0-9.6,0-14.4,0-2,0-2.24-.24-2.24-2.23,0-2.94.1-5.89,0-8.83a8.58,8.58,0,0,1,2.21-6,11.63,11.63,0,0,1,5-3.73c.92-.34.77-.66.33-1.32a10.89,10.89,0,1,1,18.17-.21c-.71,1.09-.7,1.06.43,1.61a12.9,12.9,0,0,1,7.8,11.78c.09,2.1,0,4.2,0,6.31,0,1.78-.88,2.61-2.67,2.62H118.18Zm-.21-4.47v0c3.89,0,7.78,0,11.67,0,.87,0,1.2-.28,1.16-1.16-.05-1.15,0-2.31,0-3.46a8.18,8.18,0,0,0-6.85-7.91,49.82,49.82,0,0,0-11.12-.1c-4.16.35-6.86,3.26-7.54,7.41-.22,1.33,0,2.67-.13,4-.07,1,.32,1.26,1.27,1.25C110.26,132.36,114.12,132.38,118,132.38Zm.13-30a6.36,6.36,0,1,0,6.31,6.34A6.42,6.42,0,0,0,118.1,102.37Z"/><path d="M129.42,74.49a2.18,2.18,0,0,0-1.23-.12l-24.3-.05c-2.33,0-2.35,0-2.35-2.33s0-2.27,2.31-2.28l24.29,0h1.25c0-.48-.3-.62-.51-.83-1.77-1.79-3.54-3.59-5.35-5.35-.56-.54-.59-.93,0-1.46s1.36-1.31,2-2c.38-.39.68-.37,1.06,0,3.44,3.45,6.9,6.88,10.32,10.35a2.19,2.19,0,0,1,0,3.3c-3.4,3.44-6.84,6.84-10.25,10.28-.41.41-.73.42-1.13,0-.65-.69-1.31-1.37-2-2-.55-.5-.5-.88,0-1.38,1.78-1.74,3.53-3.51,5.28-5.28C129,75.06,129.35,74.89,129.42,74.49Z"/><path d="M13.75,69.48a2.31,2.31,0,0,0,1.37.19q11.94,0,23.88,0c1.5,0,1.51,0,1.52,1.53,0,3.17,0,3.17-3.15,3.17l-22.3,0H13.92c-.09.57.33.73.58,1,1.72,1.75,3.45,3.49,5.21,5.2.54.53.64.92,0,1.46s-1.31,1.26-1.94,1.93c-.41.44-.76.51-1.22,0-3.23-3.32-6.48-6.61-9.7-9.94-.75-.78-.67-3.33.1-4.12,3.18-3.27,6.38-6.52,9.56-9.78.49-.51.85-.46,1.3,0,.62.67,1.26,1.32,1.93,1.93s.49.88,0,1.38c-1.73,1.69-3.43,3.41-5.14,5.12C14.34,68.85,14.09,69.13,13.75,69.48Z"/><path d="M93.83,54.06c-1.2,1.22-2.38,2.45-3.58,3.66-.92.94-1,.93-1.88-.06-.33-.36-.64-.74-1-1.1-1-1.07-1-1.39,0-2.47a33.7,33.7,0,0,0,3.1-3.53c-.61,0-1.23,0-1.84,0a.84.84,0,0,1-1-1V46.89c0-.59.24-.94.86-.94,2.67,0,5.34-.05,8,0A2.12,2.12,0,0,1,98.7,48c.25,2.76.09,5.53.08,8.3,0,.53-.36.72-.84.73H95c-.63,0-.86-.34-.84-.94s0-1.25,0-1.88Z"/><path d="M92.91,102.1,89.5,98.42c-1-1.08-1-1.23,0-2.32.46-.49.95-.94,1.39-1.44s.77-.43,1.21,0c1.25,1.27,2.54,2.51,3.82,3.76,0,0,.06,0,.19,0a5.42,5.42,0,0,0,.13-1.92c0-.66.29-1,1-1h2.84c.62,0,.87.31.86.92,0,2.59,0,5.19,0,7.78a2.27,2.27,0,0,1-2.39,2.41c-2.55.07-5.12,0-7.68,0-.66,0-.94-.3-.92-1,0-.88,0-1.75,0-2.63s.34-1.07,1.08-1C91.54,102.11,92.08,102.1,92.91,102.1Z"/><path d="M44.9,98.72c1.4-1.41,2.65-2.63,3.84-3.9.58-.62,1-.73,1.61,0a21.65,21.65,0,0,0,1.85,1.86c.51.47.49.83,0,1.3-1.09,1-2.14,2.12-3.2,3.19a2,2,0,0,0-.67,1c.7,0,1.32,0,1.93,0s1,.23,1,1c0,1,0,1.89,0,2.84a.73.73,0,0,1-.83.84c-2.63,0-5.26,0-7.88,0-1.42-.05-2-.79-2-2.16,0-2.53,0-5,0-7.57,0-.85.33-1.24,1.15-1.28a1.38,1.38,0,0,0,.2,0c2.69-.34,2.78-.26,2.92,2.4A5,5,0,0,0,44.9,98.72Z"/><path d="M50.4,50.89c1.28,1.24,2.53,2.51,3.84,3.73.58.55.66,1,0,1.52A23.32,23.32,0,0,0,52.4,58c-.47.51-.82.48-1.29,0-1.31-1.36-2.65-2.69-4.23-4.29,0,1,0,1.75,0,2.46s-.26.91-.87.9h-.21c-3,.12-3,.09-3-2.84,0-2.06,0-4.13,0-6.2,0-1.31.54-2,1.86-2,2.63-.09,5.26-.05,7.88-.06a.73.73,0,0,1,.83.84q0,1.47,0,2.94c0,.64-.31.88-.9.87h-2Z"/></g></svg>