<?xml version="1.0" encoding="utf-8"?>
<!-- Generator: Adobe Illustrator 25.2.3, SVG Export Plug-In . SVG Version: 6.00 Build 0)  -->
<svg version="1.1" xmlns="http://www.w3.org/2000/svg" xmlns:xlink="http://www.w3.org/1999/xlink" x="0px" y="0px"
	 viewBox="0 0 144 144" style="enable-background:new 0 0 144 144;" xml:space="preserve">
<style type="text/css">
	.st0{display:none;}
	.st1{display:inline;}
	.st2{fill:#00759A;}
	.st3{fill:#5DB8AC;}
	.st4{fill:#FFCC33;}
	.st5{fill:url(#SVGID_1_);}
	.st6{display:inline;fill:url(#SVGID_2_);}
	.st7{display:inline;fill:#FFCC33;}
</style>
<g id="art-board-1" class="st0">
	<g id="Layer_5" class="st1">
	</g>
	<g id="Layer_6" class="st1">
	</g>
</g>
<g id="art-borad-2">
	<g id="logo" class="st0">
		<linearGradient id="SVGID_1_" gradientUnits="userSpaceOnUse" x1="41.7107" y1="41.721" x2="102.2875" y2="102.2978">
			<stop  offset="1.209549e-03" style="stop-color:#FFCC33"/>
			<stop  offset="0.5074" style="stop-color:#5DB8AC"/>
			<stop  offset="0.9987" style="stop-color:#00759A"/>
		</linearGradient>
		<path style="display:inline;fill:url(#SVGID_1_);" d="M111,33.03l-0.02-0.02c-8.11-8.05-18.91-12.48-30.43-12.48
			c0,0-0.01,0-0.01,0c-11.48,0.04-22.26,4.55-30.35,12.7c-15.48,15.6-16.61,40.43-2.89,57.34L32.99,104.9
			c-1.65,1.68-1.65,4.41,0.02,6.11c8.09,8.03,18.85,12.46,30.28,12.46c11.55,0,22.39-4.5,30.51-12.68
			c15.48-15.6,16.61-40.43,2.89-57.34L111,39.12C112.66,37.44,112.66,34.71,111,33.03z M90.54,59.57
			c10.39,13.44,9.38,32.83-2.65,45.1l-0.25,0.21c-12.28,12.23-31.78,13.31-45.31,2.83L90.54,59.57z M56.32,39.13l0.86-0.86
			c12.45-11.54,31.16-12.25,44.4-1.96L53.45,84.44C42.98,70.9,44.08,51.4,56.32,39.13z"/>
	</g>
	<g id="file" class="st0">
		<g class="st1">
			<path class="st3" d="M88.9,77.1H55.1c-2.1,0-3.7,1.7-3.7,3.7s1.7,3.7,3.7,3.7H89c2.1,0,3.7-1.7,3.7-3.7S91,77.1,88.9,77.1z"/>
			<path class="st3" d="M88.9,59.6H55.1c-2.1,0-3.7,1.7-3.7,3.7S53,67,55.1,67H89c2.1,0,3.7-1.7,3.7-3.7S91,59.6,88.9,59.6z"/>
			<path class="st3" d="M55.1,49.5h17.2c2.1,0,3.7-1.7,3.7-3.7s-1.7-3.7-3.7-3.7H55.1c-2.1,0-3.7,1.7-3.7,3.7S53,49.5,55.1,49.5z"/>
			<path class="st3" d="M88.9,94.6H55.1c-2.1,0-3.7,1.7-3.7,3.7c0,2.1,1.7,3.7,3.7,3.7H89c2.1,0,3.7-1.7,3.7-3.7
				C92.7,96.2,91,94.6,88.9,94.6z"/>
			<path class="st3" d="M109.4,40.9L94.2,25.7c-0.7-0.7-1.6-1.1-2.6-1.1l-54.4-0.1l0,0c-1,0-1.9,0.4-2.6,1.1
				c-0.7,0.7-1.1,1.6-1.1,2.6v87.6c0,2.1,1.7,3.7,3.7,3.7h69.6c2.1,0,3.7-1.7,3.7-3.7V43.6C110.5,42.6,110.1,41.6,109.4,40.9z
				 M102,44.1H91v-11L102,44.1z M40.9,112.1V32h42.7v12.3c0,4,3.2,7.2,7.2,7.2h12.3V112H40.9V112.1z"/>
		</g>
	</g>
	<g id="package" class="st0">
		<path class="st7" d="M113.95,50.56l0.01,0c-0.05-1.24-0.72-2.35-1.8-2.96L73.79,25.43c-1.11-0.64-2.48-0.64-3.59,0l0.03,0.05
			c-3,1.63-36,20.68-38.52,22.24l-0.02-0.03c-1.04,0.66-1.66,1.79-1.67,3.02v42.6c0,1.28,0.69,2.47,1.8,3.11l38.4,22.17
			c0.56,0.31,1.17,0.47,1.79,0.47c0.62,0,1.23-0.16,1.8-0.47l38.39-22.17c1.11-0.64,1.79-1.83,1.8-3.13c-0.01-0.21,0-6.07,0-12.87
			C113.99,55.2,113.99,51.27,113.95,50.56z M68.4,74.94v34.31L37.2,91.19V56.92L68.4,74.94z M75.59,74.94l31.2-17.96v34.25
			l-31.2,18.02V74.94z M92.83,56.69l-31.2-18.06L72,32.69l31.2,18.06L92.83,56.69z M85.65,60.84L72,68.72L40.79,50.66l13.66-7.88
			L85.65,60.84z"/>
	</g>
	<g id="project">
		<path class="st2" d="M110.39,90.86V78.83c0-2.07-1.68-3.75-3.75-3.75H75.75v-7.54C85.85,65.8,93.57,57,93.57,46.41
			c0-11.84-9.63-21.47-21.46-21.47s-21.47,9.63-21.47,21.47c0,10.52,7.61,19.27,17.61,21.1v7.58H37.36c-2.07,0-3.75,1.68-3.75,3.75
			v12.03c-6.1,1.66-10.6,7.22-10.6,13.84c0,7.92,6.44,14.35,14.35,14.35s14.35-6.44,14.35-14.35c0-6.62-4.51-12.19-10.6-13.84v-8.28
			h27.14v8.28c-6.1,1.66-10.6,7.22-10.6,13.84c0,7.92,6.44,14.35,14.35,14.35s14.35-6.44,14.35-14.35c0-6.62-4.51-12.19-10.6-13.84
			v-8.28h27.14v8.28c-6.1,1.66-10.6,7.22-10.6,13.84c0,7.92,6.44,14.35,14.35,14.35c7.92,0,14.36-6.44,14.36-14.35
			C120.99,98.09,116.49,92.52,110.39,90.86z M58.14,46.41c0-7.7,6.26-13.97,13.97-13.97c7.7,0,13.96,6.26,13.96,13.97
			s-6.26,13.97-13.96,13.97C64.41,60.37,58.14,54.11,58.14,46.41z M44.22,104.7c0,3.78-3.08,6.85-6.85,6.85s-6.85-3.08-6.85-6.85
			s3.08-6.85,6.85-6.85S44.22,100.92,44.22,104.7z M78.85,104.7c0,3.78-3.08,6.85-6.85,6.85s-6.85-3.08-6.85-6.85
			s3.08-6.85,6.85-6.85S78.85,100.92,78.85,104.7z M106.64,111.56c-3.78,0-6.85-3.08-6.85-6.85s3.08-6.85,6.85-6.85
			c3.78,0,6.86,3.08,6.86,6.85S110.42,111.56,106.64,111.56z"/>
	</g>
</g>
</svg>
