<svg id="art-board-2" xmlns="http://www.w3.org/2000/svg" viewBox="0 0 144 144"><path d="M115.55,66.58c-2.4-.71-6.66-.25-6.49,3a63.74,63.74,0,0,1-.68,9.16,35.87,35.87,0,0,1-15.67,22.79h0a39.73,39.73,0,0,1-8.9,4h0l-1.74.44h0a35,35,0,0,1-25.4-4h0a37,37,0,0,1-11.41-11h0a29,29,0,0,1-1.95-3.26h0a4.77,4.77,0,0,0-.84-1.53h0a6.28,6.28,0,0,0-.67-1.73h0l-.66-1.74h0l-.63-2h0c0-1-.69-1.83-.66-2.83h0a32.26,32.26,0,0,1,.66-14.16h0c.21-.73.43-1.45.65-2.18h0A34.77,34.77,0,0,1,47.45,50h0A35.88,35.88,0,0,1,56,42.69h0a39,39,0,0,1,10.15-4,51.2,51.2,0,0,1,7.72-1.06A7.34,7.34,0,0,0,77.07,37c2.69-.86,2.48-3.92,2.38-6.19a3.17,3.17,0,0,0-3.33-3.3c-7.44.24-15.09,1.32-21.66,5h0a31.26,31.26,0,0,0-5.9,3.6h0a26.67,26.67,0,0,0-3.45,2.75h0a1.51,1.51,0,0,0-.65.6c-.55.3-.81.9-1.32,1.26h0l-.87.89a2.62,2.62,0,0,0-.84.94h0l-1.1,1.27-.66.83h0a2,2,0,0,0-.66.87h0A25.65,25.65,0,0,0,36.63,49,3.36,3.36,0,0,0,36,50.05h0a1.35,1.35,0,0,0-.45.84h0a11.23,11.23,0,0,0-1.3,2.62,1.38,1.38,0,0,0-.44,1.08,4.67,4.67,0,0,0-.87,2.18h0c-3.15,8.24-2.71,22.87,0,30.67h0a2.14,2.14,0,0,0,.44,1.09,2.17,2.17,0,0,0,.43,1.09A13.77,13.77,0,0,0,34.89,92h0c.2.38.21.87.63,1.13a6.17,6.17,0,0,0,1.1,2,38.26,38.26,0,0,0,6.54,8.41h0a29,29,0,0,0,2.82,2.6h0a41.34,41.34,0,0,0,15.2,8.35,42.18,42.18,0,0,0,24.82.44,43.75,43.75,0,0,0,29.76-27.66c2.23-5.6,2.65-11.49,2.78-17.42C118.58,67.93,117.46,66.86,115.55,66.58Z"/><path d="M129,47.21a36.69,36.69,0,0,0-5.45-.2h0c-7.83-.34-5.23-6-4.32-11.31,4.26-13.35,13.52-7.74,13.87-14.79-.5-7-2.92-6.42-8.46-4.13a21,21,0,0,0-12.83,12c-2.23,4.46-2.66,9.49-2.82,14.39a3.85,3.85,0,0,1-3.49,4.14h0c-4.55.41-7.39-.56-7-5.72.06-3.83.14-23.38.11-29.32.07-1.57-.43-3.57-2.27-3.71-2.27-.46-4.55.23-6.84.06-5.77,0-11.54-.11-17.3.08A62.47,62.47,0,0,0,41.39,18h0A59.91,59.91,0,0,0,26.83,30.22h0a15.79,15.79,0,0,0-2.39,2.83h0a4.57,4.57,0,0,0-1.07,1.36h0a3.8,3.8,0,0,0-.91,1.26h0a2.06,2.06,0,0,0-.61.87h0A2.91,2.91,0,0,0,21,37.85h0a3.41,3.41,0,0,0-.85,1.32h0a27.14,27.14,0,0,0-2.17,3.72,19,19,0,0,0-1.76,3.66,2.52,2.52,0,0,0-.65,1.52h0A14.36,14.36,0,0,0,14,52a13.14,13.14,0,0,0-1.08,3.26h0c-2.56,8.24-2.21,14.65-1.73,24.06a54,54,0,0,0,3.47,13.77h0a41.53,41.53,0,0,0,3.25,7.43h0a11,11,0,0,0,1.32,2.55h0a31.07,31.07,0,0,0,2.83,4.57,29.58,29.58,0,0,0,3.44,4.65h0c1,1.44,2.38,2.67,3.52,4h0a62,62,0,0,0,48.53,19.19h0a55.79,55.79,0,0,0,15-2.56h0c6-1.55,7.52-6,5.7-11.52-.14-1.2-2.39.43-3.14.5-2.43.89-4.88,1.72-7.37,2.42h0A57.86,57.86,0,0,1,76.84,126a55.26,55.26,0,0,1-20.63-3.09h0A57.87,57.87,0,0,1,39.49,113h0a71.39,71.39,0,0,1-7.7-8h0l-1.31-1.74h0a4.71,4.71,0,0,0-1-1.32h0a4.22,4.22,0,0,0-.9-1.51h0l-1.09-1.74h0a28.2,28.2,0,0,0-1.71-3.27h0c-.15-1-1-1.63-1.13-2.59h0c-.93-2.27-1.66-4.62-2.37-7h0c-.3-1.31-.59-2.61-.88-3.92h0a55.39,55.39,0,0,1,2.24-28.48h0c.84-1.8,1.43-3.69,2.35-5.45h0a11.11,11.11,0,0,0,1.13-2.16h0c.87-1.48,1.77-3,2.74-4.38h0c.24-.35.49-.7.73-1.06h0A5.61,5.61,0,0,0,31.66,39h0A59.83,59.83,0,0,1,38,32.3h0l1.89-1.62h0c1.68-1.44,3.5-2.56,5.28-3.84h0a59.77,59.77,0,0,1,33.89-9c3,.47,8.89-.31,10.42,2.72a22.09,22.09,0,0,1,.21,3.35c-.12,5.06.88,22.91-3.23,23.36-8.77,0-18.46-.87-25.9,4.68h0c-12,7.67-14.82,25.55-4.77,36,5.41,6.52,14.4,10.51,22.85,8.45A24.21,24.21,0,0,0,95.75,83.74c2.13-2.65,5.48-16.89.46-17.18-2.27-.54-5.91-.29-6.33,2.56-1.15,7-2,12.61-8.89,16.43h0l-2.83,1h0c-18.35,4.28-26-22.09-8.9-28.56,3.88-1.26,7.95-.64,11.94-.91,14,0,27.94,0,41.92,0h0c3.06-.33,8.58,1.38,9.59-2.62C133.33,51.61,133,47.13,129,47.21Z"/></svg>