<svg xmlns="http://www.w3.org/2000/svg" viewBox="0 0 144 144"><g id="about-icons"><g id="Layer_11" data-name="Layer 11"><path d="M138,83.69a16,16,0,0,0-17.91-13.25,15.8,15.8,0,0,0-3.44.8,14.76,14.76,0,0,0-7.87,6.05l-.05.08,0,0A16.42,16.42,0,0,0,107.28,80a15.29,15.29,0,0,0-.86,2.52.83.83,0,0,0,0,.15.89.89,0,0,1-.78.56c-1,0-2,0-3,0H99.27a28.2,28.2,0,0,1-5.56-.57q-.78-.16-1.53-.39a20.43,20.43,0,0,1-2.74-1.07,29.57,29.57,0,0,1-5.82-3.63,24.12,24.12,0,0,1-7.7-12.31,26.35,26.35,0,0,1-.6-5.06c0-2.17-.08-4.33-.1-6.49q0-13.36,0-26.72c0-2.88,0-5.77,0-8.65,0-.22-.1-.48.15-.65l.19.08,3.18,3.65q5,5.81,10.08,11.6a5.17,5.17,0,0,0,.53.52,3,3,0,0,0,2.62.78A3.2,3.2,0,0,0,94,29.2c-.76-1-1.64-1.95-2.49-2.91l-.67-.78q-8.1-9.35-16.22-18.67a3.49,3.49,0,0,0-2.61-1.36H72a3.49,3.49,0,0,0-2.61,1.36q-8.13,9.32-16.22,18.67l-.68.78c-.84,1-1.72,1.89-2.48,2.91a3.2,3.2,0,0,0,2,5.09,3,3,0,0,0,2.62-.78,5.17,5.17,0,0,0,.53-.52q5-5.8,10.08-11.6l3.18-3.65.19-.08c.25.17.15.43.15.65,0,2.88,0,5.77,0,8.65q0,13.36,0,26.72c0,2.16-.06,4.32-.1,6.49a26.35,26.35,0,0,1-.6,5.06,24.12,24.12,0,0,1-7.7,12.31,29.57,29.57,0,0,1-5.82,3.63,20.43,20.43,0,0,1-2.74,1.07q-.75.23-1.53.39a28.2,28.2,0,0,1-5.56.57H41.41c-1,0-2,0-3,0a.89.89,0,0,1-.78-.56.83.83,0,0,0,0-.15A15.29,15.29,0,0,0,36.72,80a16.42,16.42,0,0,0-1.41-2.57l0,0,0-.08a14.76,14.76,0,0,0-7.87-6.05,15.8,15.8,0,0,0-3.44-.8,16.14,16.14,0,0,0-4.81,31.91,15.46,15.46,0,0,0,8.11-.65,16,16,0,0,0,7.53-5.48,15.72,15.72,0,0,0,2.74-5.54l.06-.21a1.17,1.17,0,0,1,1.06-.84h.26c.65,0,1.29,0,1.93,0a50.68,50.68,0,0,0,8.08-.23l.93-.15a29.91,29.91,0,0,0,15.1-7.15,27.67,27.67,0,0,0,2.9-2.93l.81-.89a1.35,1.35,0,0,1,.13.9c0,8.74,0,17.48,0,26.21a2.32,2.32,0,0,1-.06.63,1.16,1.16,0,0,1-.71.71l-.25.08-.24.08a16.05,16.05,0,0,0-3.6,1.53,15.17,15.17,0,0,0-7.35,9.27,2,2,0,0,0-.08.26l0,.12c-.07.22-.12.44-.18.67s-.15.69-.22,1.05c-1.65,8.72,4.94,17.45,13.72,18.6a15.48,15.48,0,0,0,2,.13h.38a15.48,15.48,0,0,0,2-.13c8.78-1.15,15.37-9.88,13.72-18.6-.07-.36-.14-.71-.22-1.05s-.11-.45-.18-.67l0-.12a2,2,0,0,0-.08-.26,15.17,15.17,0,0,0-7.35-9.27,16.05,16.05,0,0,0-3.6-1.53l-.24-.08-.25-.08a1.16,1.16,0,0,1-.71-.71,2.32,2.32,0,0,1-.06-.63c0-8.73,0-17.47,0-26.21a1.35,1.35,0,0,1,.13-.9l.81.89a27.67,27.67,0,0,0,2.9,2.93,29.91,29.91,0,0,0,15.1,7.15l.93.15a50.68,50.68,0,0,0,8.08.23c.64,0,1.28,0,1.93,0h.26a1.17,1.17,0,0,1,1.06.84l.06.21a15.72,15.72,0,0,0,2.74,5.54,16,16,0,0,0,7.53,5.48,15.46,15.46,0,0,0,8.11.65A16.09,16.09,0,0,0,138,83.69Zm-21-5.54.11-.08.07,0a10.07,10.07,0,0,1,8.94-.51A10.13,10.13,0,0,1,129.39,80a9.43,9.43,0,0,1,2.35,6.47A9.61,9.61,0,0,1,122,96.15a9.75,9.75,0,0,1-5.09-18ZM81.73,122.39A9.73,9.73,0,1,1,72,112.64h.1A9.77,9.77,0,0,1,81.73,122.39ZM21.92,76.72a9.68,9.68,0,0,1,5,1.32l.07,0,.11.08a9.74,9.74,0,0,1-5.09,18,9.61,9.61,0,0,1-9.71-9.69A9.43,9.43,0,0,1,14.61,80a10.13,10.13,0,0,1,3.33-2.46A9.63,9.63,0,0,1,21.92,76.72Z"/></g></g></svg>