<svg id="logo-v2" xmlns="http://www.w3.org/2000/svg" xmlns:xlink="http://www.w3.org/1999/xlink" viewBox="0 0 100 100"><defs><style>.cls-1{fill:#fff;}.cls-2{fill:url(#linear-gradient);}</style><linearGradient id="linear-gradient" x1="19.38" y1="80.62" x2="80.62" y2="19.38" gradientUnits="userSpaceOnUse"><stop offset="0" stop-color="#fff"/><stop offset="0.03" stop-color="#e8d2d9"/><stop offset="0.07" stop-color="#d3a8b6"/><stop offset="0.11" stop-color="#c08396"/><stop offset="0.16" stop-color="#b0637b"/><stop offset="0.2" stop-color="#a34965"/><stop offset="0.26" stop-color="#983655"/><stop offset="0.32" stop-color="#912849"/><stop offset="0.39" stop-color="#8d1f42"/><stop offset="0.52" stop-color="#8c1d40"/><stop offset="1"/></linearGradient></defs><path class="cls-1" d="M82.06,20.44a2.47,2.47,0,0,0-.74-1.76,34.29,34.29,0,0,0-50.2,46.66L18.68,77.79a2.47,2.47,0,0,0,0,3.53,34.29,34.29,0,0,0,50.2-46.66L81.32,22.21A2.5,2.5,0,0,0,82.06,20.44ZM63.65,77.79a29.35,29.35,0,0,1-39.6,1.69L65.34,38.2A29.33,29.33,0,0,1,63.65,77.79Zm-29-16A29.3,29.3,0,0,1,76,20.52Z"/><g id="full-gradient"><path id="full" class="cls-2" d="M80.62,21.5a1.51,1.51,0,0,0,0-2.12h0a33.3,33.3,0,0,0-48.13,46L19.38,78.5a1.51,1.51,0,0,0,0,2.12h0a33.3,33.3,0,0,0,48.13-46Zm-45,0a30.33,30.33,0,0,1,41.76-1l-12,12L34.61,63.27A30.34,30.34,0,0,1,35.65,21.5Zm28.7,57a30.33,30.33,0,0,1-41.76,1l12-12L65.39,36.73A30.34,30.34,0,0,1,64.35,78.5Z"/></g></svg>